<?xml version="1.0" encoding="utf-8"?>
<!-- Generator: Adobe Illustrator 26.5.0, SVG Export Plug-In . SVG Version: 6.00 Build 0)  -->
<svg version="1.1" id="Layer_1" xmlns="http://www.w3.org/2000/svg" xmlns:xlink="http://www.w3.org/1999/xlink" x="0px" y="0px"
	 viewBox="0 0 742 620" style="enable-background:new 0 0 742 620;" xml:space="preserve">
<style type="text/css">
	.st0{font-family:'AdobeClean-Bold';}
	.st1{font-size:32px;}
	.st2{font-size:16px;}
	.st3{font-size:11px;}
	.st4{fill:#AFAFAF;}
	.st5{font-family:'AdobeClean-Regular';}
	.st6{font-size:12px;}
	.st7{font-size:14px;}
	.st8{fill:#949494;}
	.st9{fill:#7A7A7A;}
	.st10{fill:#616161;}
	.st11{fill:#FFFFFF;}
	.st12{fill:#494949;}
	.st13{fill:#323232;}
	.st14{fill:#69C17D;}
	.st15{fill:#2EA94A;}
	.st16{fill:#228C3A;}
	.st17{fill:#1B6F2E;}
	.st18{fill:#145423;}
	.st19{fill:#0E3A18;}
	.st20{fill:#8FB2DF;}
	.st21{fill:#6796D3;}
	.st22{fill:#3F7BC8;}
	.st23{fill:#2861AB;}
	.st24{fill:#1E4A81;}
	.st25{fill:#153259;}
</style>
<text transform="matrix(1 0 0 1 16 48)" class="st0 st1">Untitled</text>
<text transform="matrix(1 0 0 1 16 119.25)" class="st0 st2">Gray</text>
<text transform="matrix(1 0 0 1 16 166.25)" class="st0 st3">Contrast with</text>
<text transform="matrix(1 0 0 1 16 178.25)" class="st0 st3">background color</text>
<path class="st4" d="M174,106.2h64c4.4,0,8,3.6,8,8v64c0,4.4-3.6,8-8,8h-64c-4.4,0-8-3.6-8-8v-64C166,109.8,169.6,106.2,174,106.2z"
	/>
<text transform="matrix(1 0 0 1 174 178.25)" class="st5 st6">2.19:1</text>
<text transform="matrix(1 0 0 1 166 95.25)" class="st5 st7">100</text>
<path class="st8" d="M270,106.2h64c4.4,0,8,3.6,8,8v64c0,4.4-3.6,8-8,8h-64c-4.4,0-8-3.6-8-8v-64C262,109.8,265.6,106.2,270,106.2z"
	/>
<text transform="matrix(1 0 0 1 270 178.25)" class="st5 st6">3.03:1</text>
<text transform="matrix(1 0 0 1 262 95.25)" class="st5 st7">200</text>
<path class="st9" d="M366,106.2h64c4.4,0,8,3.6,8,8v64c0,4.4-3.6,8-8,8h-64c-4.4,0-8-3.6-8-8v-64C358,109.8,361.6,106.2,366,106.2z"
	/>
<text transform="matrix(1 0 0 1 366 178.25)" class="st5 st6">4.29:1</text>
<text transform="matrix(1 0 0 1 358 95.25)" class="st5 st7">300</text>
<path class="st10" d="M462,106.2h64c4.4,0,8,3.6,8,8v64c0,4.4-3.6,8-8,8h-64c-4.4,0-8-3.6-8-8v-64C454,109.8,457.6,106.2,462,106.2z
	"/>
<text transform="matrix(1 0 0 1 462 178.25)" class="st11 st5 st6">6.19:1</text>
<text transform="matrix(1 0 0 1 454 95.25)" class="st5 st7">400</text>
<path class="st12" d="M558,106.2h64c4.4,0,8,3.6,8,8v64c0,4.4-3.6,8-8,8h-64c-4.4,0-8-3.6-8-8v-64C550,109.8,553.6,106.2,558,106.2z
	"/>
<text transform="matrix(1 0 0 1 558 178.25)" class="st11 st5 st6">9:1</text>
<text transform="matrix(1 0 0 1 550 95.25)" class="st5 st7">500</text>
<path class="st13" d="M654,106.2h64c4.4,0,8,3.6,8,8v64c0,4.4-3.6,8-8,8h-64c-4.4,0-8-3.6-8-8v-64C646,109.8,649.6,106.2,654,106.2z
	"/>
<text transform="matrix(1 0 0 1 654 178.25)" class="st11 st5 st6">12.82:1</text>
<text transform="matrix(1 0 0 1 646 95.25)" class="st5 st7">600</text>
<text transform="matrix(1 0 0 1 464 263.25)" class="st11 st5 st6">6.19:1</text>
<text transform="matrix(1 0 0 1 560 263.25)" class="st11 st5 st6">9:1</text>
<text transform="matrix(1 0 0 1 656 263.25)" class="st11 st5 st6">12.82:1</text>
<text transform="matrix(1 0 0 1 17 243.25)" class="st0 st2">Green</text>
<text transform="matrix(1 0 0 1 17 290.25)" class="st0 st3">Contrast with</text>
<text transform="matrix(1 0 0 1 17 302.25)" class="st0 st3">background color</text>
<path class="st14" d="M175,230.2h64c4.4,0,8,3.6,8,8v64c0,4.4-3.6,8-8,8h-64c-4.4,0-8-3.6-8-8v-64C167,233.8,170.6,230.2,175,230.2z
	"/>
<text transform="matrix(1 0 0 1 175 302.25)" class="st5 st6">2.19:1</text>
<text transform="matrix(1 0 0 1 167 219.25)" class="st5 st7">100</text>
<path class="st15" d="M271,230.2h64c4.4,0,8,3.6,8,8v64c0,4.4-3.6,8-8,8h-64c-4.4,0-8-3.6-8-8v-64C263,233.8,266.6,230.2,271,230.2z
	"/>
<text transform="matrix(1 0 0 1 271 302.25)" class="st5 st6">3.03:1</text>
<text transform="matrix(1 0 0 1 263 219.25)" class="st5 st7">200</text>
<path class="st16" d="M367,230.2h64c4.4,0,8,3.6,8,8v64c0,4.4-3.6,8-8,8h-64c-4.4,0-8-3.6-8-8v-64C359,233.8,362.6,230.2,367,230.2z
	"/>
<text transform="matrix(1 0 0 1 367 302.25)" class="st5 st6">4.29:1</text>
<text transform="matrix(1 0 0 1 359 219.25)" class="st5 st7">300</text>
<path class="st17" d="M463,230.2h64c4.4,0,8,3.6,8,8v64c0,4.4-3.6,8-8,8h-64c-4.4,0-8-3.6-8-8v-64C455,233.8,458.6,230.2,463,230.2z
	"/>
<text transform="matrix(1 0 0 1 463 302.25)" class="st11 st5 st6">6.19:1</text>
<text transform="matrix(1 0 0 1 455 219.25)" class="st5 st7">400</text>
<path class="st18" d="M559,230.2h64c4.4,0,8,3.6,8,8v64c0,4.4-3.6,8-8,8h-64c-4.4,0-8-3.6-8-8v-64C551,233.8,554.6,230.2,559,230.2z
	"/>
<text transform="matrix(1 0 0 1 559 302.25)" class="st11 st5 st6">9:1</text>
<text transform="matrix(1 0 0 1 551 219.25)" class="st5 st7">500</text>
<path class="st19" d="M655,230.2h64c4.4,0,8,3.6,8,8v64c0,4.4-3.6,8-8,8h-64c-4.4,0-8-3.6-8-8v-64C647,233.8,650.6,230.2,655,230.2z
	"/>
<text transform="matrix(1 0 0 1 655 302.25)" class="st11 st5 st6">12.82:1</text>
<text transform="matrix(1 0 0 1 647 219.25)" class="st5 st7">600</text>
<text transform="matrix(1 0 0 1 17 380.25)" class="st0 st2">Blue</text>
<text transform="matrix(1 0 0 1 17 427.25)" class="st0 st3">Contrast with</text>
<text transform="matrix(1 0 0 1 17 439.25)" class="st0 st3">background color</text>
<path class="st20" d="M175,367.2h64c4.4,0,8,3.6,8,8v64c0,4.4-3.6,8-8,8h-64c-4.4,0-8-3.6-8-8v-64C167,370.8,170.6,367.2,175,367.2z
	"/>
<text transform="matrix(1 0 0 1 175 439.25)" class="st5 st6">2.19:1</text>
<text transform="matrix(1 0 0 1 167 356.25)" class="st5 st7">100</text>
<path class="st21" d="M271,367.2h64c4.4,0,8,3.6,8,8v64c0,4.4-3.6,8-8,8h-64c-4.4,0-8-3.6-8-8v-64C263,370.8,266.6,367.2,271,367.2z
	"/>
<text transform="matrix(1 0 0 1 271 439.25)" class="st5 st6">3.03:1</text>
<text transform="matrix(1 0 0 1 263 356.25)" class="st5 st7">200</text>
<path class="st22" d="M367,367.2h64c4.4,0,8,3.6,8,8v64c0,4.4-3.6,8-8,8h-64c-4.4,0-8-3.6-8-8v-64C359,370.8,362.6,367.2,367,367.2z
	"/>
<text transform="matrix(1 0 0 1 367 439.25)" class="st5 st6">4.29:1</text>
<text transform="matrix(1 0 0 1 359 356.25)" class="st5 st7">300</text>
<path class="st23" d="M463,367.2h64c4.4,0,8,3.6,8,8v64c0,4.4-3.6,8-8,8h-64c-4.4,0-8-3.6-8-8v-64C455,370.8,458.6,367.2,463,367.2z
	"/>
<text transform="matrix(1 0 0 1 463 439.25)" class="st11 st5 st6">6.19:1</text>
<text transform="matrix(1 0 0 1 455 356.25)" class="st5 st7">400</text>
<path class="st24" d="M559,367.2h64c4.4,0,8,3.6,8,8v64c0,4.4-3.6,8-8,8h-64c-4.4,0-8-3.6-8-8v-64C551,370.8,554.6,367.2,559,367.2z
	"/>
<text transform="matrix(1 0 0 1 559 439.25)" class="st11 st5 st6">9:1</text>
<text transform="matrix(1 0 0 1 551 356.25)" class="st5 st7">500</text>
<path class="st25" d="M655,367.2h64c4.4,0,8,3.6,8,8v64c0,4.4-3.6,8-8,8h-64c-4.4,0-8-3.6-8-8v-64C647,370.8,650.6,367.2,655,367.2z
	"/>
<text transform="matrix(1 0 0 1 655 439.25)" class="st11 st5 st6">12.82:1</text>
<text transform="matrix(1 0 0 1 647 356.25)" class="st5 st7">600</text>
</svg>
